<svg width="500" height="500" viewBox="0 0 500 500" fill="none" xmlns="http://www.w3.org/2000/svg">
  <path
    d="M250 421.689C365.973 421.689 460 339.422 460 237.939C460 136.457 365.973 54.1892 250 54.1892C134.027 54.1892 40 136.457 40 237.939C40 284.139 59.5038 326.402 91.7125 358.689C89.1663 385.359 80.7663 414.602 71.4738 436.547C69.4 441.429 73.4163 446.889 78.64 446.049C137.86 436.337 173.061 421.427 188.365 413.657C208.47 419.019 229.192 421.72 250 421.689Z"
    fill='white' />
  <path
    d="M250 156.723C255.696 156.723 261.158 158.979 265.186 162.993C269.213 167.008 271.476 172.453 271.476 178.131V220.947H228.524V178.131C228.524 172.453 230.787 167.008 234.814 162.993C238.842 158.979 244.304 156.723 250 156.723ZM282.214 220.947V178.131C282.214 169.615 278.82 161.447 272.778 155.425C266.737 149.403 258.544 146.019 250 146.019C241.456 146.019 233.263 149.403 227.222 155.425C221.18 161.447 217.786 169.615 217.786 178.131V220.947C212.091 220.947 206.628 223.202 202.601 227.217C198.573 231.232 196.311 236.677 196.311 242.354V295.874C196.311 301.551 198.573 306.997 202.601 311.011C206.628 315.026 212.091 317.282 217.786 317.282H282.214C287.909 317.282 293.372 315.026 297.399 311.011C301.427 306.997 303.689 301.551 303.689 295.874V242.354C303.689 236.677 301.427 231.232 297.399 227.217C293.372 223.202 287.909 220.947 282.214 220.947Z"
    fill='black' />
</svg>